<svg xmlns="http://www.w3.org/2000/svg" width="800" height="1200" viewBox="0 0 800 1200">
  <defs>
    <linearGradient id="sanctuaryGradient" x1="0%" y1="0%" x2="0%" y2="100%">
      <stop offset="0%" style="stop-color:#050608"/>
      <stop offset="30%" style="stop-color:#1a2a3a"/>
      <stop offset="60%" style="stop-color:#1a3a3a"/>
      <stop offset="100%" style="stop-color:#050608"/>
    </linearGradient>
    <radialGradient id="goldGlow" cx="50%" cy="0%" r="80%">
      <stop offset="0%" style="stop-color:#c9a959;stop-opacity:0.08"/>
      <stop offset="60%" style="stop-color:#c9a959;stop-opacity:0"/>
    </radialGradient>
  </defs>
  
  <!-- Main gradient background -->
  <rect width="800" height="1200" fill="url(#sanctuaryGradient)"/>
  
  <!-- Gold glow at top -->
  <ellipse cx="400" cy="0" rx="640" ry="300" fill="url(#goldGlow)"/>
  
  <!-- Stars layer 1 -->
  <circle cx="50" cy="80" r="1" fill="#e8d5a3" opacity="0.6"/>
  <circle cx="120" cy="150" r="0.8" fill="#f5f3ee" opacity="0.5"/>
  <circle cx="200" cy="60" r="1.2" fill="#c9a959" opacity="0.7"/>
  <circle cx="280" cy="200" r="0.6" fill="#faf8f3" opacity="0.4"/>
  <circle cx="350" cy="100" r="1" fill="#e8d5a3" opacity="0.6"/>
  <circle cx="420" cy="180" r="0.8" fill="#f5f3ee" opacity="0.5"/>
  <circle cx="500" cy="50" r="1.1" fill="#c9a959" opacity="0.65"/>
  <circle cx="580" cy="140" r="0.7" fill="#faf8f3" opacity="0.45"/>
  <circle cx="650" cy="90" r="1" fill="#e8d5a3" opacity="0.55"/>
  <circle cx="720" cy="170" r="0.9" fill="#f5f3ee" opacity="0.5"/>
  <circle cx="780" cy="60" r="1.2" fill="#c9a959" opacity="0.6"/>
  
  <!-- Stars layer 2 -->
  <circle cx="30" cy="250" r="0.8" fill="#e8d5a3" opacity="0.5"/>
  <circle cx="100" cy="320" r="1" fill="#f5f3ee" opacity="0.6"/>
  <circle cx="180" cy="280" r="0.7" fill="#c9a959" opacity="0.55"/>
  <circle cx="250" cy="350" r="1.1" fill="#faf8f3" opacity="0.5"/>
  <circle cx="330" cy="290" r="0.9" fill="#e8d5a3" opacity="0.6"/>
  <circle cx="400" cy="360" r="0.8" fill="#f5f3ee" opacity="0.45"/>
  <circle cx="480" cy="270" r="1" fill="#c9a959" opacity="0.6"/>
  <circle cx="550" cy="340" r="0.7" fill="#faf8f3" opacity="0.5"/>
  <circle cx="630" cy="300" r="1.2" fill="#e8d5a3" opacity="0.55"/>
  <circle cx="700" cy="380" r="0.8" fill="#f5f3ee" opacity="0.5"/>
  <circle cx="770" cy="260" r="1" fill="#c9a959" opacity="0.6"/>
  
  <!-- Stars layer 3 -->
  <circle cx="60" cy="450" r="1" fill="#e8d5a3" opacity="0.5"/>
  <circle cx="140" cy="520" r="0.8" fill="#f5f3ee" opacity="0.55"/>
  <circle cx="220" cy="480" r="1.1" fill="#c9a959" opacity="0.6"/>
  <circle cx="300" cy="550" r="0.7" fill="#faf8f3" opacity="0.45"/>
  <circle cx="380" cy="490" r="0.9" fill="#e8d5a3" opacity="0.55"/>
  <circle cx="460" cy="560" r="1" fill="#f5f3ee" opacity="0.5"/>
  <circle cx="540" cy="470" r="0.8" fill="#c9a959" opacity="0.6"/>
  <circle cx="620" cy="540" r="1.2" fill="#faf8f3" opacity="0.5"/>
  <circle cx="700" cy="500" r="0.7" fill="#e8d5a3" opacity="0.55"/>
  <circle cx="760" cy="580" r="1" fill="#f5f3ee" opacity="0.5"/>
  
  <!-- Stars layer 4 -->
  <circle cx="40" cy="650" r="0.9" fill="#e8d5a3" opacity="0.45"/>
  <circle cx="110" cy="720" r="1" fill="#f5f3ee" opacity="0.5"/>
  <circle cx="190" cy="680" r="0.8" fill="#c9a959" opacity="0.55"/>
  <circle cx="270" cy="750" r="1.1" fill="#faf8f3" opacity="0.5"/>
  <circle cx="350" cy="690" r="0.7" fill="#e8d5a3" opacity="0.5"/>
  <circle cx="430" cy="760" r="1" fill="#f5f3ee" opacity="0.45"/>
  <circle cx="510" cy="670" r="0.9" fill="#c9a959" opacity="0.55"/>
  <circle cx="590" cy="740" r="0.8" fill="#faf8f3" opacity="0.5"/>
  <circle cx="670" cy="700" r="1.2" fill="#e8d5a3" opacity="0.5"/>
  <circle cx="740" cy="780" r="0.7" fill="#f5f3ee" opacity="0.45"/>
  
  <!-- Stars layer 5 -->
  <circle cx="70" cy="850" r="1" fill="#e8d5a3" opacity="0.4"/>
  <circle cx="150" cy="920" r="0.8" fill="#f5f3ee" opacity="0.45"/>
  <circle cx="230" cy="880" r="1.1" fill="#c9a959" opacity="0.5"/>
  <circle cx="310" cy="950" r="0.7" fill="#faf8f3" opacity="0.4"/>
  <circle cx="390" cy="890" r="0.9" fill="#e8d5a3" opacity="0.45"/>
  <circle cx="470" cy="960" r="1" fill="#f5f3ee" opacity="0.4"/>
  <circle cx="550" cy="870" r="0.8" fill="#c9a959" opacity="0.5"/>
  <circle cx="630" cy="940" r="1.2" fill="#faf8f3" opacity="0.45"/>
  <circle cx="710" cy="900" r="0.7" fill="#e8d5a3" opacity="0.4"/>
  <circle cx="780" cy="980" r="1" fill="#f5f3ee" opacity="0.45"/>
  
  <!-- Stars layer 6 -->
  <circle cx="50" cy="1050" r="0.9" fill="#e8d5a3" opacity="0.35"/>
  <circle cx="130" cy="1120" r="1" fill="#f5f3ee" opacity="0.4"/>
  <circle cx="210" cy="1080" r="0.8" fill="#c9a959" opacity="0.45"/>
  <circle cx="290" cy="1150" r="1.1" fill="#faf8f3" opacity="0.35"/>
  <circle cx="370" cy="1090" r="0.7" fill="#e8d5a3" opacity="0.4"/>
  <circle cx="450" cy="1160" r="1" fill="#f5f3ee" opacity="0.35"/>
  <circle cx="530" cy="1070" r="0.9" fill="#c9a959" opacity="0.45"/>
  <circle cx="610" cy="1140" r="0.8" fill="#faf8f3" opacity="0.4"/>
  <circle cx="690" cy="1100" r="1.2" fill="#e8d5a3" opacity="0.35"/>
  <circle cx="760" cy="1180" r="0.7" fill="#f5f3ee" opacity="0.4"/>
</svg>
