<svg xmlns="http://www.w3.org/2000/svg" viewBox="0 0 512 512" role="img" aria-label="Heirloom">
  <defs>
    <!-- SVG ellipse ∞: outer rings cut to ink, inner ovals restore tapestry -->
    <mask id="cutout">
      <rect width="512" height="512" fill="white"/>
      <ellipse cx="176" cy="256" rx="96" ry="71" fill="black"/>
      <ellipse cx="336" cy="256" rx="96" ry="71" fill="black"/>
      <ellipse cx="176" cy="256" rx="64" ry="38" fill="white"/>
      <ellipse cx="336" cy="256" rx="64" ry="38" fill="white"/>
    </mask>
  </defs>

  <!-- Ink background — visible through the ∞ stroke cutout -->
  <rect width="512" height="512" fill="#0e0e0c"/>

  <!-- Tapestry cloth — masked so ∞ stroke area exposes ink -->
  <g mask="url(#cutout)">

    <!-- Warp hairlines -->
    <g stroke="rgba(244,236,216,0.20)" stroke-width="1">
      <line x1="38"  y1="0" x2="38"  y2="512"/>
      <line x1="80"  y1="0" x2="80"  y2="512"/>
      <line x1="122" y1="0" x2="122" y2="512"/>
      <line x1="164" y1="0" x2="164" y2="512"/>
      <line x1="206" y1="0" x2="206" y2="512"/>
      <line x1="248" y1="0" x2="248" y2="512"/>
      <line x1="290" y1="0" x2="290" y2="512"/>
      <line x1="332" y1="0" x2="332" y2="512"/>
      <line x1="374" y1="0" x2="374" y2="512"/>
      <line x1="416" y1="0" x2="416" y2="512"/>
      <line x1="458" y1="0" x2="458" y2="512"/>
      <line x1="500" y1="0" x2="500" y2="512"/>
    </g>

    <!-- Warm threads — top zone (madder / walnut / rust) -->
    <g stroke-linecap="square">
      <line x1="22"  y1="16"  x2="138" y2="16"  stroke="#c07838" stroke-width="4.5"/>
      <line x1="186" y1="25"  x2="320" y2="25"  stroke="#a85830" stroke-width="3.8"/>
      <line x1="68"  y1="34"  x2="188" y2="34"  stroke="#b06428" stroke-width="5.0"/>
      <line x1="354" y1="34"  x2="468" y2="34"  stroke="#c07838" stroke-width="4.2"/>
      <line x1="0"   y1="43"  x2="92"  y2="43"  stroke="#a85830" stroke-width="4.0"/>
      <line x1="248" y1="43"  x2="394" y2="43"  stroke="#986030" stroke-width="4.8"/>
      <line x1="104" y1="52"  x2="228" y2="52"  stroke="#c07838" stroke-width="5.5"/>
      <line x1="436" y1="52"  x2="512" y2="52"  stroke="#c49040" stroke-width="3.5"/>
      <line x1="48"  y1="61"  x2="162" y2="61"  stroke="#b06428" stroke-width="4.2"/>
      <line x1="298" y1="61"  x2="448" y2="61"  stroke="#a85830" stroke-width="4.0"/>
      <line x1="0"   y1="70"  x2="68"  y2="70"  stroke="#986030" stroke-width="3.8"/>
      <line x1="188" y1="70"  x2="316" y2="70"  stroke="#c07838" stroke-width="4.5"/>
      <line x1="374" y1="70"  x2="512" y2="70"  stroke="#c49040" stroke-width="5.0"/>
      <line x1="78"  y1="79"  x2="208" y2="79"  stroke="#a85830" stroke-width="4.2"/>
      <line x1="258" y1="79"  x2="398" y2="79"  stroke="#b06428" stroke-width="3.5"/>
      <line x1="14"  y1="88"  x2="116" y2="88"  stroke="#c07838" stroke-width="4.8"/>
      <line x1="448" y1="88"  x2="512" y2="88"  stroke="#986030" stroke-width="4.0"/>
      <line x1="152" y1="97"  x2="284" y2="97"  stroke="#b06428" stroke-width="4.5"/>
      <line x1="336" y1="97"  x2="478" y2="97"  stroke="#c07838" stroke-width="5.5"/>
      <line x1="32"  y1="106" x2="134" y2="106" stroke="#c49040" stroke-width="3.8"/>
      <line x1="202" y1="106" x2="332" y2="106" stroke="#a85830" stroke-width="4.2"/>
      <line x1="0"   y1="115" x2="78"  y2="115" stroke="#c07838" stroke-width="5.0"/>
      <line x1="390" y1="115" x2="512" y2="115" stroke="#b06428" stroke-width="4.5"/>
      <line x1="112" y1="124" x2="248" y2="124" stroke="#986030" stroke-width="4.0"/>
      <line x1="290" y1="124" x2="426" y2="124" stroke="#c07838" stroke-width="3.5"/>
    </g>

    <!-- Indigo band (deep woad / indigo) -->
    <g stroke-linecap="square">
      <line x1="58"  y1="141" x2="192" y2="141" stroke="#2848a8" stroke-width="4.5"/>
      <line x1="256" y1="141" x2="412" y2="141" stroke="#1e3878" stroke-width="4.0"/>
      <line x1="0"   y1="150" x2="124" y2="150" stroke="#3060c8" stroke-width="5.0"/>
      <line x1="462" y1="150" x2="512" y2="150" stroke="#2848a8" stroke-width="4.2"/>
      <line x1="168" y1="159" x2="312" y2="159" stroke="#1e3878" stroke-width="3.5"/>
      <line x1="372" y1="159" x2="488" y2="159" stroke="#3060c8" stroke-width="4.8"/>
      <line x1="38"  y1="168" x2="158" y2="168" stroke="#2848a8" stroke-width="4.5"/>
      <line x1="218" y1="168" x2="358" y2="168" stroke="#1a3060" stroke-width="5.0"/>
      <line x1="0"   y1="177" x2="82"  y2="177" stroke="#3060c8" stroke-width="3.8"/>
      <line x1="412" y1="177" x2="512" y2="177" stroke="#2848a8" stroke-width="4.2"/>
      <line x1="102" y1="186" x2="236" y2="186" stroke="#1e3878" stroke-width="4.5"/>
      <line x1="284" y1="186" x2="422" y2="186" stroke="#3060c8" stroke-width="5.0"/>
      <line x1="24"  y1="195" x2="148" y2="195" stroke="#1a3060" stroke-width="4.0"/>
      <line x1="198" y1="195" x2="326" y2="195" stroke="#2848a8" stroke-width="4.8"/>
      <line x1="474" y1="195" x2="512" y2="195" stroke="#1e3878" stroke-width="3.5"/>
      <line x1="68"  y1="204" x2="192" y2="204" stroke="#3060c8" stroke-width="4.2"/>
      <line x1="342" y1="204" x2="468" y2="204" stroke="#2848a8" stroke-width="5.0"/>
      <line x1="0"   y1="213" x2="96"  y2="213" stroke="#1e3878" stroke-width="4.5"/>
      <line x1="228" y1="213" x2="366" y2="213" stroke="#3060c8" stroke-width="4.0"/>
      <line x1="148" y1="222" x2="268" y2="222" stroke="#1a3060" stroke-width="4.8"/>
      <line x1="396" y1="222" x2="512" y2="222" stroke="#2848a8" stroke-width="3.5"/>
      <line x1="42"  y1="231" x2="166" y2="231" stroke="#1e3878" stroke-width="4.2"/>
      <line x1="296" y1="231" x2="436" y2="231" stroke="#3060c8" stroke-width="5.0"/>
      <line x1="0"   y1="240" x2="112" y2="240" stroke="#2848a8" stroke-width="4.5"/>
      <line x1="188" y1="240" x2="328" y2="240" stroke="#1a3060" stroke-width="4.0"/>
      <line x1="456" y1="240" x2="512" y2="240" stroke="#1e3878" stroke-width="3.8"/>
    </g>

    <!-- Gold / weld band -->
    <g stroke-linecap="square">
      <line x1="78"  y1="278" x2="218" y2="278" stroke="#d4a028" stroke-width="4.5"/>
      <line x1="292" y1="278" x2="448" y2="278" stroke="#c89020" stroke-width="4.0"/>
      <line x1="0"   y1="287" x2="118" y2="287" stroke="#b87818" stroke-width="5.0"/>
      <line x1="456" y1="287" x2="512" y2="287" stroke="#d4a028" stroke-width="3.8"/>
      <line x1="162" y1="296" x2="298" y2="296" stroke="#c89020" stroke-width="4.5"/>
      <line x1="352" y1="296" x2="488" y2="296" stroke="#e0aa30" stroke-width="4.2"/>
      <line x1="0"   y1="305" x2="32"  y2="305" stroke="#c89020" stroke-width="3.8"/>
      <line x1="36"  y1="305" x2="162" y2="305" stroke="#d4a028" stroke-width="5.5"/>
      <line x1="208" y1="305" x2="348" y2="305" stroke="#b87818" stroke-width="4.0"/>
      <line x1="88"  y1="314" x2="226" y2="314" stroke="#e0aa30" stroke-width="5.0"/>
      <line x1="386" y1="314" x2="512" y2="314" stroke="#d4a028" stroke-width="4.5"/>
      <line x1="0"   y1="323" x2="72"  y2="323" stroke="#c89020" stroke-width="3.5"/>
      <line x1="272" y1="323" x2="406" y2="323" stroke="#b87818" stroke-width="4.8"/>
      <line x1="18"  y1="332" x2="132" y2="332" stroke="#d4a028" stroke-width="4.2"/>
      <line x1="446" y1="332" x2="512" y2="332" stroke="#c89020" stroke-width="4.5"/>
      <line x1="178" y1="341" x2="314" y2="341" stroke="#e0aa30" stroke-width="5.0"/>
      <line x1="348" y1="341" x2="486" y2="341" stroke="#d4a028" stroke-width="3.8"/>
      <line x1="52"  y1="350" x2="186" y2="350" stroke="#b87818" stroke-width="4.2"/>
      <line x1="236" y1="359" x2="372" y2="359" stroke="#c89020" stroke-width="4.5"/>
      <line x1="106" y1="368" x2="238" y2="368" stroke="#d4a028" stroke-width="5.5"/>
      <line x1="398" y1="368" x2="512" y2="368" stroke="#b87818" stroke-width="4.0"/>
      <line x1="0"   y1="377" x2="108" y2="377" stroke="#e0aa30" stroke-width="4.2"/>
      <line x1="286" y1="377" x2="432" y2="377" stroke="#c89020" stroke-width="3.8"/>
    </g>

    <!-- Warm threads — bottom zone -->
    <g stroke-linecap="square">
      <line x1="0"   y1="392" x2="124" y2="392" stroke="#a85830" stroke-width="4.5"/>
      <line x1="218" y1="392" x2="358" y2="392" stroke="#c07838" stroke-width="4.0"/>
      <line x1="406" y1="392" x2="512" y2="392" stroke="#986030" stroke-width="3.8"/>
      <line x1="62"  y1="401" x2="194" y2="401" stroke="#b06428" stroke-width="5.0"/>
      <line x1="282" y1="401" x2="428" y2="401" stroke="#a85830" stroke-width="4.2"/>
      <line x1="0"   y1="410" x2="94"  y2="410" stroke="#c49040" stroke-width="3.5"/>
      <line x1="464" y1="410" x2="512" y2="410" stroke="#c07838" stroke-width="4.8"/>
      <line x1="138" y1="419" x2="282" y2="419" stroke="#986030" stroke-width="4.5"/>
      <line x1="44"  y1="428" x2="158" y2="428" stroke="#a85830" stroke-width="5.0"/>
      <line x1="332" y1="428" x2="468" y2="428" stroke="#c07838" stroke-width="4.0"/>
      <line x1="0"   y1="437" x2="86"  y2="437" stroke="#b06428" stroke-width="4.2"/>
      <line x1="208" y1="437" x2="342" y2="437" stroke="#a85830" stroke-width="3.8"/>
      <line x1="378" y1="437" x2="512" y2="437" stroke="#c07838" stroke-width="4.5"/>
      <line x1="72"  y1="446" x2="208" y2="446" stroke="#986030" stroke-width="5.0"/>
      <line x1="264" y1="446" x2="412" y2="446" stroke="#b06428" stroke-width="4.2"/>
      <line x1="0"   y1="455" x2="106" y2="455" stroke="#a85830" stroke-width="3.5"/>
      <line x1="444" y1="455" x2="512" y2="455" stroke="#c07838" stroke-width="4.8"/>
      <line x1="144" y1="464" x2="288" y2="464" stroke="#986030" stroke-width="4.5"/>
      <line x1="28"  y1="473" x2="138" y2="473" stroke="#b06428" stroke-width="4.0"/>
      <line x1="302" y1="473" x2="442" y2="473" stroke="#a85830" stroke-width="5.0"/>
      <line x1="184" y1="482" x2="322" y2="482" stroke="#c07838" stroke-width="4.2"/>
      <line x1="0"   y1="491" x2="88"  y2="491" stroke="#c49040" stroke-width="3.8"/>
      <line x1="356" y1="491" x2="488" y2="491" stroke="#b06428" stroke-width="4.5"/>
      <line x1="118" y1="500" x2="258" y2="500" stroke="#a85830" stroke-width="5.0"/>
      <line x1="394" y1="500" x2="512" y2="500" stroke="#c07838" stroke-width="4.2"/>
    </g>

  </g>
</svg>
