<svg xmlns="http://www.w3.org/2000/svg" viewBox="0 0 1200 630" width="1200" height="630">
  <!-- Left text panel — bone -->
  <rect x="0" y="0" width="634" height="630" fill="#f4ecd8"/>

  <!-- Right tapestry panel — ink -->
  <rect x="634" y="0" width="566" height="630" fill="#0e0e0c"/>

  <!-- Panel separator hairline -->
  <line x1="634" y1="0" x2="634" y2="630" stroke="rgba(244,236,216,0.12)" stroke-width="1"/>

  <!-- Top hairline (left panel) -->
  <line x1="68" y1="100" x2="566" y2="100" stroke="#0e0e0c" stroke-width="1"/>

  <!-- ∞ mark in warm -->
  <text x="68" y="90" font-family="Georgia,'Times New Roman',serif" font-size="26" font-weight="300" fill="#b07a4a">∞</text>

  <!-- Eyebrow -->
  <text x="98" y="86" font-family="'Courier New',monospace" font-size="9" fill="rgba(14,14,12,0.38)" letter-spacing="4">FAMILY THREAD</text>

  <!-- Headline -->
  <text x="68" y="210" font-family="Georgia,'Times New Roman',serif" font-size="82" font-weight="300" fill="#0e0e0c" letter-spacing="-2">Start your</text>
  <text x="68" y="305" font-family="Georgia,'Times New Roman',serif" font-size="82" font-weight="300" fill="#0e0e0c" letter-spacing="-2">family's</text>
  <text x="68" y="400" font-family="Georgia,'Times New Roman',serif" font-size="82" font-weight="300" fill="#0e0e0c" letter-spacing="-2">thousand-year</text>
  <text x="68" y="495" font-family="Georgia,'Times New Roman',serif" font-size="82" font-weight="300" fill="#0e0e0c" letter-spacing="-2">thread.</text>

  <!-- Bottom hairline (left panel) -->
  <line x1="68" y1="544" x2="566" y2="544" stroke="#0e0e0c" stroke-width="1"/>

  <!-- Wordmark -->
  <text x="68" y="567" font-family="'Courier New',monospace" font-size="10" fill="rgba(14,14,12,0.9)" letter-spacing="4">HEIRLOOM</text>

  <!-- URL -->
  <text x="566" y="567" text-anchor="end" font-family="'Courier New',monospace" font-size="10" fill="rgba(14,14,12,0.32)" letter-spacing="2">heirloom.blue</text>

  <!-- ═══════════════════════════════════════════════════════════════════ -->
  <!-- RIGHT PANEL: Dense tapestry cloth — vibrant natural-dye palette   -->
  <!-- ═══════════════════════════════════════════════════════════════════ -->

  <!-- Warp hairlines -->
  <g stroke="rgba(244,236,216,0.28)" stroke-width="1">
    <line x1="648"  y1="0" x2="648"  y2="630"/>
    <line x1="690"  y1="0" x2="690"  y2="630"/>
    <line x1="732"  y1="0" x2="732"  y2="630"/>
    <line x1="774"  y1="0" x2="774"  y2="630"/>
    <line x1="816"  y1="0" x2="816"  y2="630"/>
    <line x1="858"  y1="0" x2="858"  y2="630"/>
    <line x1="900"  y1="0" x2="900"  y2="630"/>
    <line x1="942"  y1="0" x2="942"  y2="630"/>
    <line x1="984"  y1="0" x2="984"  y2="630"/>
    <line x1="1026" y1="0" x2="1026" y2="630"/>
    <line x1="1068" y1="0" x2="1068" y2="630"/>
    <line x1="1110" y1="0" x2="1110" y2="630"/>
    <line x1="1152" y1="0" x2="1152" y2="630"/>
    <line x1="1194" y1="0" x2="1194" y2="630"/>
  </g>

  <!-- Band 1 — madder/kermes (reds) -->
  <g stroke-linecap="square" opacity="1">
    <line x1="646"  y1="26"  x2="732"  y2="26"  stroke="#e03428" stroke-width="4.5"/>
    <line x1="776"  y1="34"  x2="884"  y2="34"  stroke="#e03428" stroke-width="4.2"/>
    <line x1="688"  y1="42"  x2="772"  y2="42"  stroke="#ec4458" stroke-width="4.8"/>
    <line x1="930"  y1="42"  x2="1048" y2="42"  stroke="#e03428" stroke-width="4.2"/>
    <line x1="812"  y1="51"  x2="902"  y2="51"  stroke="#ec4458" stroke-width="4.0"/>
    <line x1="634"  y1="59"  x2="718"  y2="59"  stroke="#e03428" stroke-width="4.5"/>
    <line x1="976"  y1="59"  x2="1102" y2="59"  stroke="#e03428" stroke-width="4.2"/>
    <line x1="750"  y1="67"  x2="854"  y2="67"  stroke="#ec4458" stroke-width="4.0"/>
    <line x1="694"  y1="76"  x2="792"  y2="76"  stroke="#e03428" stroke-width="4.2"/>
    <line x1="1056" y1="76"  x2="1144" y2="76"  stroke="#ec4458" stroke-width="4.0"/>
    <line x1="870"  y1="84"  x2="998"  y2="84"  stroke="#e03428" stroke-width="4.5"/>
  </g>

  <!-- Band 2 — saffron/weld (golds) -->
  <g stroke-linecap="square" opacity="1">
    <line x1="878"  y1="108" x2="1008" y2="108" stroke="#f4c030" stroke-width="4.2"/>
    <line x1="680"  y1="116" x2="782"  y2="116" stroke="#f4c030" stroke-width="4.0"/>
    <line x1="1052" y1="116" x2="1146" y2="116" stroke="#e8a828" stroke-width="3.8"/>
    <line x1="800"  y1="125" x2="902"  y2="125" stroke="#e8a828" stroke-width="4.5"/>
    <line x1="634"  y1="134" x2="722"  y2="134" stroke="#f4c030" stroke-width="4.0"/>
    <line x1="976"  y1="134" x2="1090" y2="134" stroke="#f4c030" stroke-width="4.2"/>
    <line x1="744"  y1="143" x2="852"  y2="143" stroke="#e8a828" stroke-width="4.0"/>
    <line x1="896"  y1="152" x2="1012" y2="152" stroke="#f4c030" stroke-width="4.5"/>
    <line x1="668"  y1="160" x2="764"  y2="160" stroke="#e8a828" stroke-width="3.8"/>
    <line x1="814"  y1="168" x2="932"  y2="168" stroke="#f4c030" stroke-width="4.2"/>
    <line x1="1106" y1="160" x2="1146" y2="160" stroke="#f4c030" stroke-width="4.0"/>
  </g>

  <!-- Band 3 — indigo/woad (blues) -->
  <g stroke-linecap="square" opacity="1">
    <line x1="718"  y1="190" x2="832"  y2="190" stroke="#2860d0" stroke-width="4.5"/>
    <line x1="894"  y1="198" x2="1028" y2="198" stroke="#2860d0" stroke-width="4.2"/>
    <line x1="1064" y1="198" x2="1146" y2="198" stroke="#3a8cc8" stroke-width="4.0"/>
    <line x1="644"  y1="207" x2="740"  y2="207" stroke="#3a8cc8" stroke-width="4.2"/>
    <line x1="780"  y1="216" x2="898"  y2="216" stroke="#2860d0" stroke-width="4.5"/>
    <line x1="974"  y1="225" x2="1104" y2="225" stroke="#3a8cc8" stroke-width="4.0"/>
    <line x1="690"  y1="234" x2="788"  y2="234" stroke="#2860d0" stroke-width="4.2"/>
    <line x1="830"  y1="234" x2="932"  y2="234" stroke="#3a8cc8" stroke-width="4.0"/>
    <line x1="1024" y1="243" x2="1146" y2="243" stroke="#2860d0" stroke-width="4.5"/>
    <line x1="714"  y1="252" x2="832"  y2="252" stroke="#2860d0" stroke-width="4.2"/>
  </g>

  <!-- Band 4 — cochineal/madder (crimsons) -->
  <g stroke-linecap="square" opacity="1">
    <line x1="668"  y1="276" x2="782"  y2="276" stroke="#c02050" stroke-width="4.5"/>
    <line x1="840"  y1="284" x2="952"  y2="284" stroke="#e03428" stroke-width="4.0"/>
    <line x1="1056" y1="284" x2="1146" y2="284" stroke="#c02050" stroke-width="4.2"/>
    <line x1="634"  y1="293" x2="714"  y2="293" stroke="#e03428" stroke-width="4.0"/>
    <line x1="950"  y1="293" x2="1058" y2="293" stroke="#c02050" stroke-width="4.5"/>
    <line x1="788"  y1="302" x2="904"  y2="302" stroke="#c02050" stroke-width="4.2"/>
    <line x1="680"  y1="311" x2="794"  y2="311" stroke="#c02050" stroke-width="4.0"/>
    <line x1="1008" y1="311" x2="1128" y2="311" stroke="#e03428" stroke-width="4.5"/>
    <line x1="856"  y1="320" x2="984"  y2="320" stroke="#c02050" stroke-width="4.2"/>
    <line x1="634"  y1="329" x2="734"  y2="329" stroke="#e03428" stroke-width="4.0"/>
    <line x1="1044" y1="329" x2="1146" y2="329" stroke="#c02050" stroke-width="4.2"/>
  </g>

  <!-- Band 5 — weld/saffron (golds) -->
  <g stroke-linecap="square" opacity="1">
    <line x1="694"  y1="360" x2="812"  y2="360" stroke="#e8a828" stroke-width="4.5"/>
    <line x1="870"  y1="368" x2="992"  y2="368" stroke="#f4c030" stroke-width="4.0"/>
    <line x1="1044" y1="368" x2="1146" y2="368" stroke="#e8a828" stroke-width="4.2"/>
    <line x1="634"  y1="377" x2="728"  y2="377" stroke="#e8a828" stroke-width="4.0"/>
    <line x1="780"  y1="386" x2="904"  y2="386" stroke="#f4c030" stroke-width="4.5"/>
    <line x1="950"  y1="395" x2="1084" y2="395" stroke="#e8a828" stroke-width="4.2"/>
    <line x1="658"  y1="404" x2="768"  y2="404" stroke="#f4c030" stroke-width="4.0"/>
    <line x1="828"  y1="404" x2="944"  y2="404" stroke="#e8a828" stroke-width="4.5"/>
    <line x1="1074" y1="412" x2="1146" y2="412" stroke="#f4c030" stroke-width="4.0"/>
    <line x1="718"  y1="420" x2="840"  y2="420" stroke="#f4c030" stroke-width="4.2"/>
    <line x1="908"  y1="420" x2="1028" y2="420" stroke="#e8a828" stroke-width="4.0"/>
  </g>

  <!-- Band 6 — woad/indigo (blues) -->
  <g stroke-linecap="square" opacity="1">
    <line x1="780"  y1="442" x2="912"  y2="442" stroke="#3a8cc8" stroke-width="4.5"/>
    <line x1="644"  y1="450" x2="748"  y2="450" stroke="#2860d0" stroke-width="4.2"/>
    <line x1="958"  y1="450" x2="1094" y2="450" stroke="#3a8cc8" stroke-width="4.0"/>
    <line x1="840"  y1="459" x2="972"  y2="459" stroke="#2860d0" stroke-width="4.5"/>
    <line x1="634"  y1="468" x2="718"  y2="468" stroke="#3a8cc8" stroke-width="4.2"/>
    <line x1="1010" y1="468" x2="1146" y2="468" stroke="#2860d0" stroke-width="4.0"/>
    <line x1="754"  y1="477" x2="878"  y2="477" stroke="#3a8cc8" stroke-width="4.5"/>
    <line x1="900"  y1="486" x2="1048" y2="486" stroke="#2860d0" stroke-width="4.2"/>
    <line x1="678"  y1="495" x2="794"  y2="495" stroke="#3a8cc8" stroke-width="4.0"/>
    <line x1="1078" y1="495" x2="1146" y2="495" stroke="#2860d0" stroke-width="4.2"/>
  </g>

  <!-- Warm now-hairline at ~70% of panel width -->
  <line x1="1030" y1="0" x2="1030" y2="630" stroke="#b07a4a" stroke-width="1" opacity="0.8"/>

  <!-- Year labels -->
  <text x="640"  y="620" font-family="'Courier New',monospace" font-size="8" fill="rgba(244,236,216,0.52)">2020</text>
  <text x="780"  y="620" font-family="'Courier New',monospace" font-size="8" fill="rgba(244,236,216,0.28)">2030</text>
  <text x="920"  y="620" font-family="'Courier New',monospace" font-size="8" fill="rgba(244,236,216,0.28)">2040</text>
  <text x="1060" y="620" font-family="'Courier New',monospace" font-size="8" fill="rgba(244,236,216,0.28)">2050</text>

  <!-- Sealed ∞ pegs (future entries) -->
  <text x="1090" y="48" font-family="Georgia,serif" font-size="13" fill="#b07a4a" text-anchor="middle" opacity="0.72">∞</text>
  <text x="1140" y="48" font-family="Georgia,serif" font-size="13" fill="#b07a4a" text-anchor="middle" opacity="0.72">∞</text>
  <line x1="1090" y1="54" x2="1090" y2="200" stroke="rgba(176,122,74,0.35)" stroke-width="1" stroke-dasharray="2,4"/>
  <line x1="1140" y1="54" x2="1140" y2="200" stroke="rgba(176,122,74,0.35)" stroke-width="1" stroke-dasharray="2,4"/>

  <!-- Frayed selvedge at the now-position -->
  <line x1="1030" y1="120" x2="1052" y2="118" stroke="rgba(244,236,216,0.18)" stroke-width="0.8"/>
  <line x1="1030" y1="180" x2="1046" y2="185" stroke="rgba(244,236,216,0.14)" stroke-width="0.6"/>
  <line x1="1030" y1="240" x2="1058" y2="238" stroke="rgba(244,236,216,0.28)" stroke-width="0.9"/>
  <line x1="1030" y1="310" x2="1044" y2="316" stroke="rgba(244,236,216,0.16)" stroke-width="0.7"/>
  <line x1="1030" y1="370" x2="1060" y2="372" stroke="rgba(244,236,216,0.18)" stroke-width="0.8"/>
  <line x1="1030" y1="430" x2="1048" y2="434" stroke="rgba(244,236,216,0.14)" stroke-width="0.6"/>
  <line x1="1030" y1="490" x2="1055" y2="488" stroke="rgba(244,236,216,0.28)" stroke-width="0.9"/>
  <!-- Warm unwoven thread tip -->
  <path d="M1030,290 C1054,288 1070,296 1100,302" stroke="rgba(176,122,74,0.65)" stroke-width="1.4" fill="none"/>
</svg>
