<svg xmlns="http://www.w3.org/2000/svg" viewBox="0 0 1000 1500" width="1000" height="1500">
  <!-- Ink background -->
  <rect width="1000" height="1500" fill="#0e0e0c"/>

  <!-- Warp hairlines -->
  <g stroke="rgba(244,236,216,0.28)" stroke-width="1">
    <line x1="50"  y1="0" x2="50"  y2="1500"/>
    <line x1="100" y1="0" x2="100" y2="1500"/>
    <line x1="150" y1="0" x2="150" y2="1500"/>
    <line x1="200" y1="0" x2="200" y2="1500"/>
    <line x1="250" y1="0" x2="250" y2="1500"/>
    <line x1="300" y1="0" x2="300" y2="1500"/>
    <line x1="350" y1="0" x2="350" y2="1500"/>
    <line x1="400" y1="0" x2="400" y2="1500"/>
    <line x1="450" y1="0" x2="450" y2="1500"/>
    <line x1="500" y1="0" x2="500" y2="1500"/>
    <line x1="550" y1="0" x2="550" y2="1500"/>
    <line x1="600" y1="0" x2="600" y2="1500"/>
    <line x1="650" y1="0" x2="650" y2="1500"/>
    <line x1="700" y1="0" x2="700" y2="1500"/>
    <line x1="750" y1="0" x2="750" y2="1500"/>
    <line x1="800" y1="0" x2="800" y2="1500"/>
    <line x1="850" y1="0" x2="850" y2="1500"/>
    <line x1="900" y1="0" x2="900" y2="1500"/>
    <line x1="950" y1="0" x2="950" y2="1500"/>
  </g>

  <!-- Band 1 — madder/kermes -->
  <g stroke-linecap="square" opacity="1">
    <line x1="24"  y1="40"  x2="190" y2="40"  stroke="#e03428" stroke-width="5.0"/>
    <line x1="276" y1="57"  x2="487" y2="57"  stroke="#e03428" stroke-width="4.9"/>
    <line x1="106" y1="73"  x2="268" y2="73"  stroke="#ec4458" stroke-width="5.2"/>
    <line x1="578" y1="73"  x2="807" y2="73"  stroke="#e03428" stroke-width="4.9"/>
    <line x1="346" y1="90"  x2="521" y2="90"  stroke="#ec4458" stroke-width="4.5"/>
    <line x1="0"   y1="106" x2="163" y2="106" stroke="#e03428" stroke-width="5.0"/>
    <line x1="666" y1="106" x2="911" y2="106" stroke="#e03428" stroke-width="4.9"/>
    <line x1="226" y1="123" x2="428" y2="123" stroke="#ec4458" stroke-width="4.5"/>
    <line x1="118" y1="139" x2="308" y2="139" stroke="#e03428" stroke-width="4.9"/>
    <line x1="822" y1="139" x2="994" y2="139" stroke="#ec4458" stroke-width="4.5"/>
    <line x1="460" y1="156" x2="709" y2="156" stroke="#e03428" stroke-width="5.0"/>
  </g>

  <!-- Band 2 — saffron/weld -->
  <g stroke-linecap="square" opacity="1">
    <line x1="474" y1="250" x2="727" y2="250" stroke="#f4c030" stroke-width="4.9"/>
    <line x1="90"  y1="267" x2="288" y2="267" stroke="#f4c030" stroke-width="4.5"/>
    <line x1="813" y1="267" x2="994" y2="267" stroke="#e8a828" stroke-width="4.2"/>
    <line x1="323" y1="284" x2="522" y2="284" stroke="#e8a828" stroke-width="5.0"/>
    <line x1="0"   y1="301" x2="171" y2="301" stroke="#f4c030" stroke-width="4.5"/>
    <line x1="664" y1="301" x2="886" y2="301" stroke="#f4c030" stroke-width="4.9"/>
    <line x1="214" y1="318" x2="424" y2="318" stroke="#e8a828" stroke-width="4.5"/>
    <line x1="509" y1="335" x2="735" y2="335" stroke="#f4c030" stroke-width="5.0"/>
    <line x1="66"  y1="352" x2="253" y2="352" stroke="#e8a828" stroke-width="4.2"/>
    <line x1="350" y1="369" x2="580" y2="369" stroke="#f4c030" stroke-width="4.9"/>
    <line x1="919" y1="352" x2="994" y2="352" stroke="#f4c030" stroke-width="4.5"/>
  </g>

  <!-- Band 3 — indigo/woad -->
  <g stroke-linecap="square" opacity="1">
    <line x1="163" y1="460" x2="385" y2="460" stroke="#2860d0" stroke-width="5.0"/>
    <line x1="507" y1="477" x2="765" y2="477" stroke="#2860d0" stroke-width="4.9"/>
    <line x1="837" y1="477" x2="1000" y2="477" stroke="#3a8cc8" stroke-width="4.5"/>
    <line x1="19"  y1="494" x2="206" y2="494" stroke="#3a8cc8" stroke-width="4.9"/>
    <line x1="284" y1="511" x2="514" y2="511" stroke="#2860d0" stroke-width="5.0"/>
    <line x1="661" y1="528" x2="913" y2="528" stroke="#3a8cc8" stroke-width="4.5"/>
    <line x1="109" y1="545" x2="300" y2="545" stroke="#2860d0" stroke-width="4.9"/>
    <line x1="382" y1="545" x2="580" y2="545" stroke="#3a8cc8" stroke-width="4.5"/>
    <line x1="759" y1="562" x2="1000" y2="562" stroke="#2860d0" stroke-width="5.0"/>
    <line x1="156" y1="579" x2="385" y2="579" stroke="#2860d0" stroke-width="4.9"/>
  </g>

  <!-- Band 4 — cochineal/madder -->
  <g stroke-linecap="square" opacity="1">
    <line x1="66"  y1="670" x2="288" y2="670" stroke="#c02050" stroke-width="5.0"/>
    <line x1="401" y1="687" x2="619" y2="687" stroke="#e03428" stroke-width="4.5"/>
    <line x1="821" y1="687" x2="1000" y2="687" stroke="#c02050" stroke-width="4.9"/>
    <line x1="0"   y1="704" x2="156" y2="704" stroke="#e03428" stroke-width="4.5"/>
    <line x1="616" y1="704" x2="826" y2="704" stroke="#c02050" stroke-width="5.0"/>
    <line x1="299" y1="721" x2="525" y2="721" stroke="#c02050" stroke-width="4.9"/>
    <line x1="90"  y1="738" x2="311" y2="738" stroke="#c02050" stroke-width="4.5"/>
    <line x1="728" y1="738" x2="962" y2="738" stroke="#e03428" stroke-width="5.0"/>
    <line x1="433" y1="755" x2="681" y2="755" stroke="#c02050" stroke-width="4.9"/>
    <line x1="0"   y1="772" x2="195" y2="772" stroke="#e03428" stroke-width="4.5"/>
    <line x1="799" y1="772" x2="1000" y2="772" stroke="#c02050" stroke-width="4.9"/>
  </g>

  <!-- Band 5 — weld/saffron -->
  <g stroke-linecap="square" opacity="1">
    <line x1="117" y1="880" x2="347" y2="880" stroke="#e8a828" stroke-width="5.0"/>
    <line x1="459" y1="897" x2="696" y2="897" stroke="#f4c030" stroke-width="4.5"/>
    <line x1="798" y1="897" x2="1000" y2="897" stroke="#e8a828" stroke-width="4.9"/>
    <line x1="0"   y1="914" x2="183" y2="914" stroke="#e8a828" stroke-width="4.5"/>
    <line x1="284" y1="931" x2="525" y2="931" stroke="#f4c030" stroke-width="5.0"/>
    <line x1="615" y1="948" x2="877" y2="948" stroke="#e8a828" stroke-width="4.9"/>
    <line x1="47"  y1="965" x2="260" y2="965" stroke="#f4c030" stroke-width="4.5"/>
    <line x1="378" y1="965" x2="603" y2="965" stroke="#e8a828" stroke-width="5.0"/>
    <line x1="856" y1="973" x2="1000" y2="973" stroke="#f4c030" stroke-width="4.5"/>
    <line x1="163" y1="990" x2="401" y2="990" stroke="#f4c030" stroke-width="4.9"/>
    <line x1="534" y1="990" x2="767" y2="990" stroke="#e8a828" stroke-width="4.5"/>
  </g>

  <!-- Band 6 — woad/indigo -->
  <g stroke-linecap="square" opacity="1">
    <line x1="284" y1="1090" x2="540"  y2="1090" stroke="#3a8cc8" stroke-width="5.0"/>
    <line x1="19"  y1="1107" x2="221"  y2="1107" stroke="#2860d0" stroke-width="4.9"/>
    <line x1="631" y1="1107" x2="897"  y2="1107" stroke="#3a8cc8" stroke-width="4.5"/>
    <line x1="401" y1="1124" x2="658"  y2="1124" stroke="#2860d0" stroke-width="5.0"/>
    <line x1="0"   y1="1141" x2="163"  y2="1141" stroke="#3a8cc8" stroke-width="4.9"/>
    <line x1="732" y1="1141" x2="1000" y2="1141" stroke="#2860d0" stroke-width="4.5"/>
    <line x1="234" y1="1158" x2="476"  y2="1158" stroke="#3a8cc8" stroke-width="5.0"/>
    <line x1="520" y1="1175" x2="807"  y2="1175" stroke="#2860d0" stroke-width="4.9"/>
    <line x1="86"  y1="1192" x2="311"  y2="1192" stroke="#3a8cc8" stroke-width="4.5"/>
    <line x1="866" y1="1192" x2="1000" y2="1192" stroke="#2860d0" stroke-width="4.9"/>
  </g>

  <!-- Warm now-hairline at ~70% width -->
  <line x1="700" y1="0" x2="700" y2="1500" stroke="#b07a4a" stroke-width="1.2" opacity="0.8"/>

  <!-- Warm unwoven thread -->
  <path d="M700,750 C732,747 758,759 808,768" stroke="rgba(176,122,74,0.65)" stroke-width="1.6" fill="none"/>

  <!-- Frayed selvedge -->
  <line x1="700" y1="200"  x2="724" y2="196"  stroke="rgba(244,236,216,0.18)" stroke-width="0.9"/>
  <line x1="700" y1="500"  x2="722" y2="507"  stroke="rgba(244,236,216,0.14)" stroke-width="0.7"/>
  <line x1="700" y1="800"  x2="728" y2="797"  stroke="rgba(244,236,216,0.28)" stroke-width="1.0"/>
  <line x1="700" y1="1100" x2="720" y2="1108" stroke="rgba(244,236,216,0.16)" stroke-width="0.8"/>
  <line x1="700" y1="1300" x2="726" y2="1302" stroke="rgba(244,236,216,0.18)" stroke-width="0.9"/>

  <!-- Sealed ∞ pegs -->
  <text x="830"  y="50" font-family="Georgia,serif" font-size="18" fill="#b07a4a" text-anchor="middle" opacity="0.72">∞</text>
  <text x="900"  y="50" font-family="Georgia,serif" font-size="18" fill="#b07a4a" text-anchor="middle" opacity="0.72">∞</text>
  <text x="960"  y="50" font-family="Georgia,serif" font-size="18" fill="#b07a4a" text-anchor="middle" opacity="0.72">∞</text>
  <line x1="830" y1="62" x2="830" y2="400" stroke="rgba(176,122,74,0.28)" stroke-width="1" stroke-dasharray="2,5"/>
  <line x1="900" y1="62" x2="900" y2="400" stroke="rgba(176,122,74,0.28)" stroke-width="1" stroke-dasharray="2,5"/>
  <line x1="960" y1="62" x2="960" y2="400" stroke="rgba(176,122,74,0.25)" stroke-width="1" stroke-dasharray="2,5"/>

  <!-- Year labels -->
  <text x="18"  y="1488" font-family="'Courier New',monospace" font-size="11" fill="rgba(244,236,216,0.52)">2010</text>
  <text x="264" y="1488" font-family="'Courier New',monospace" font-size="11" fill="rgba(244,236,216,0.28)">2030</text>
  <text x="514" y="1488" font-family="'Courier New',monospace" font-size="11" fill="rgba(244,236,216,0.28)">2050</text>
  <text x="714" y="1488" font-family="'Courier New',monospace" font-size="11" fill="rgba(244,236,216,0.28)">2070</text>

  <!-- Headline text panel at bottom — bone on ink -->
  <rect x="0" y="1280" width="1000" height="220" fill="#0e0e0c"/>
  <line x1="60" y1="1298" x2="940" y2="1298" stroke="rgba(244,236,216,0.12)" stroke-width="1"/>
  <text x="60" y="1340" font-family="Georgia,'Times New Roman',serif" font-size="52" font-weight="300" fill="#f4ecd8" letter-spacing="-1">Start your family's</text>
  <text x="60" y="1400" font-family="Georgia,'Times New Roman',serif" font-size="52" font-weight="300" fill="#f4ecd8" letter-spacing="-1">thousand-year thread.</text>
  <line x1="60" y1="1432" x2="940" y2="1432" stroke="rgba(244,236,216,0.12)" stroke-width="1"/>
  <text x="60"  y="1458" font-family="'Courier New',monospace" font-size="11" fill="rgba(244,236,216,0.55)" letter-spacing="4">HEIRLOOM</text>
  <text x="940" y="1458" text-anchor="end" font-family="'Courier New',monospace" font-size="11" fill="rgba(244,236,216,0.30)" letter-spacing="2">heirloom.blue</text>
  <text x="60"  y="1340" font-family="Georgia,'Times New Roman',serif" font-size="22" font-weight="300" fill="#b07a4a" dy="-56">∞</text>
</svg>
