<svg xmlns="http://www.w3.org/2000/svg" viewBox="0 0 1080 1080" width="1080" height="1080">
  <!-- Ink background -->
  <rect width="1080" height="1080" fill="#0e0e0c"/>

  <!-- Warp hairlines — vertical threads -->
  <g stroke="rgba(244,236,216,0.20)" stroke-width="1">
    <line x1="54"   y1="0" x2="54"   y2="1080"/>
    <line x1="108"  y1="0" x2="108"  y2="1080"/>
    <line x1="162"  y1="0" x2="162"  y2="1080"/>
    <line x1="216"  y1="0" x2="216"  y2="1080"/>
    <line x1="270"  y1="0" x2="270"  y2="1080"/>
    <line x1="324"  y1="0" x2="324"  y2="1080"/>
    <line x1="378"  y1="0" x2="378"  y2="1080"/>
    <line x1="432"  y1="0" x2="432"  y2="1080"/>
    <line x1="486"  y1="0" x2="486"  y2="1080"/>
    <line x1="540"  y1="0" x2="540"  y2="1080"/>
    <line x1="594"  y1="0" x2="594"  y2="1080"/>
    <line x1="648"  y1="0" x2="648"  y2="1080"/>
    <line x1="702"  y1="0" x2="702"  y2="1080"/>
    <line x1="756"  y1="0" x2="756"  y2="1080"/>
    <line x1="810"  y1="0" x2="810"  y2="1080"/>
    <line x1="864"  y1="0" x2="864"  y2="1080"/>
    <line x1="918"  y1="0" x2="918"  y2="1080"/>
    <line x1="972"  y1="0" x2="972"  y2="1080"/>
    <line x1="1026" y1="0" x2="1026" y2="1080"/>
  </g>

  <!-- Band 1 — madder/kermes (y 46–168) -->
  <g stroke-linecap="square" opacity="0.88">
    <line x1="26"   y1="46"  x2="206"  y2="46"  stroke="#c84038" stroke-width="4.2"/>
    <line x1="298"  y1="63"  x2="526"  y2="63"  stroke="#c84038" stroke-width="3.9"/>
    <line x1="114"  y1="79"  x2="290"  y2="79"  stroke="#d85054" stroke-width="4.4"/>
    <line x1="624"  y1="79"  x2="872"  y2="79"  stroke="#c84038" stroke-width="3.9"/>
    <line x1="374"  y1="96"  x2="564"  y2="96"  stroke="#d85054" stroke-width="3.7"/>
    <line x1="0"    y1="113" x2="177"  y2="113" stroke="#c84038" stroke-width="4.2"/>
    <line x1="720"  y1="113" x2="986"  y2="113" stroke="#c84038" stroke-width="3.9"/>
    <line x1="244"  y1="130" x2="463"  y2="130" stroke="#d85054" stroke-width="3.7"/>
    <line x1="127"  y1="147" x2="333"  y2="147" stroke="#c84038" stroke-width="3.9"/>
    <line x1="890"  y1="147" x2="1074" y2="147" stroke="#d85054" stroke-width="3.7"/>
    <line x1="497"  y1="164" x2="766"  y2="164" stroke="#c84038" stroke-width="4.2"/>
  </g>

  <!-- Band 2 — saffron/weld (y 219–347) -->
  <g stroke-linecap="square" opacity="0.88">
    <line x1="513"  y1="219" x2="787"  y2="219" stroke="#e8b840" stroke-width="3.9"/>
    <line x1="97"   y1="236" x2="312"  y2="236" stroke="#e8b840" stroke-width="3.7"/>
    <line x1="880"  y1="236" x2="1080" y2="236" stroke="#cca840" stroke-width="3.4"/>
    <line x1="350"  y1="253" x2="565"  y2="253" stroke="#cca840" stroke-width="4.2"/>
    <line x1="0"    y1="270" x2="185"  y2="270" stroke="#e8b840" stroke-width="3.7"/>
    <line x1="720"  y1="270" x2="960"  y2="270" stroke="#e8b840" stroke-width="3.9"/>
    <line x1="232"  y1="287" x2="459"  y2="287" stroke="#cca840" stroke-width="3.7"/>
    <line x1="551"  y1="304" x2="795"  y2="304" stroke="#e8b840" stroke-width="4.2"/>
    <line x1="72"   y1="321" x2="274"  y2="321" stroke="#cca840" stroke-width="3.4"/>
    <line x1="379"  y1="338" x2="627"  y2="338" stroke="#e8b840" stroke-width="3.9"/>
    <line x1="994"  y1="321" x2="1074" y2="321" stroke="#e8b840" stroke-width="3.7"/>
  </g>

  <!-- Band 3 — indigo/woad (y 392–521) -->
  <g stroke-linecap="square" opacity="0.88">
    <line x1="177"  y1="392" x2="417"  y2="392" stroke="#3868a8" stroke-width="4.2"/>
    <line x1="548"  y1="409" x2="829"  y2="409" stroke="#3868a8" stroke-width="3.9"/>
    <line x1="906"  y1="409" x2="1080" y2="409" stroke="#5080a8" stroke-width="3.7"/>
    <line x1="21"   y1="426" x2="223"  y2="426" stroke="#5080a8" stroke-width="3.9"/>
    <line x1="308"  y1="443" x2="556"  y2="443" stroke="#3868a8" stroke-width="4.2"/>
    <line x1="716"  y1="460" x2="990"  y2="460" stroke="#5080a8" stroke-width="3.7"/>
    <line x1="118"  y1="477" x2="325"  y2="477" stroke="#3868a8" stroke-width="3.9"/>
    <line x1="413"  y1="477" x2="628"  y2="477" stroke="#5080a8" stroke-width="3.7"/>
    <line x1="822"  y1="494" x2="1080" y2="494" stroke="#3868a8" stroke-width="4.2"/>
    <line x1="169"  y1="511" x2="417"  y2="511" stroke="#3868a8" stroke-width="3.9"/>
  </g>

  <!-- Band 4 — cochineal/madder (y 565–684) -->
  <g stroke-linecap="square" opacity="0.88">
    <line x1="72"   y1="565" x2="312"  y2="565" stroke="#a02848" stroke-width="4.2"/>
    <line x1="434"  y1="582" x2="670"  y2="582" stroke="#c84038" stroke-width="3.7"/>
    <line x1="889"  y1="582" x2="1080" y2="582" stroke="#a02848" stroke-width="3.9"/>
    <line x1="0"    y1="599" x2="169"  y2="599" stroke="#c84038" stroke-width="3.7"/>
    <line x1="666"  y1="599" x2="894"  y2="599" stroke="#a02848" stroke-width="4.2"/>
    <line x1="324"  y1="616" x2="568"  y2="616" stroke="#a02848" stroke-width="3.9"/>
    <line x1="97"   y1="633" x2="337"  y2="633" stroke="#a02848" stroke-width="3.7"/>
    <line x1="788"  y1="633" x2="1040" y2="633" stroke="#c84038" stroke-width="4.2"/>
    <line x1="468"  y1="650" x2="738"  y2="650" stroke="#a02848" stroke-width="3.9"/>
    <line x1="0"    y1="667" x2="211"  y2="667" stroke="#c84038" stroke-width="3.7"/>
    <line x1="864"  y1="667" x2="1080" y2="667" stroke="#a02848" stroke-width="3.9"/>
  </g>

  <!-- Band 5 — weld/saffron (y 749–868) -->
  <g stroke-linecap="square" opacity="0.88">
    <line x1="127"  y1="749" x2="375"  y2="749" stroke="#cca840" stroke-width="4.2"/>
    <line x1="497"  y1="766" x2="754"  y2="766" stroke="#e8b840" stroke-width="3.7"/>
    <line x1="864"  y1="766" x2="1080" y2="766" stroke="#cca840" stroke-width="3.9"/>
    <line x1="0"    y1="783" x2="198"  y2="783" stroke="#cca840" stroke-width="3.7"/>
    <line x1="308"  y1="800" x2="568"  y2="800" stroke="#e8b840" stroke-width="4.2"/>
    <line x1="666"  y1="817" x2="949"  y2="817" stroke="#cca840" stroke-width="3.9"/>
    <line x1="51"   y1="834" x2="282"  y2="834" stroke="#e8b840" stroke-width="3.7"/>
    <line x1="409"  y1="834" x2="653"  y2="834" stroke="#cca840" stroke-width="4.2"/>
    <line x1="927"  y1="842" x2="1080" y2="842" stroke="#e8b840" stroke-width="3.7"/>
    <line x1="177"  y1="859" x2="434"  y2="859" stroke="#e8b840" stroke-width="3.9"/>
    <line x1="578"  y1="859" x2="830"  y2="859" stroke="#cca840" stroke-width="3.7"/>
  </g>

  <!-- Band 6 — woad/indigo (y 923–1042) -->
  <g stroke-linecap="square" opacity="0.88">
    <line x1="308"  y1="923" x2="585"  y2="923" stroke="#5080a8" stroke-width="4.2"/>
    <line x1="21"   y1="940" x2="240"  y2="940" stroke="#3868a8" stroke-width="3.9"/>
    <line x1="683"  y1="940" x2="969"  y2="940" stroke="#5080a8" stroke-width="3.7"/>
    <line x1="434"  y1="957" x2="712"  y2="957" stroke="#3868a8" stroke-width="4.2"/>
    <line x1="0"    y1="974" x2="177"  y2="974" stroke="#5080a8" stroke-width="3.9"/>
    <line x1="793"  y1="974" x2="1080" y2="974" stroke="#3868a8" stroke-width="3.7"/>
    <line x1="253"  y1="991" x2="515"  y2="991" stroke="#5080a8" stroke-width="4.2"/>
    <line x1="561"  y1="1008" x2="873" y2="1008" stroke="#3868a8" stroke-width="3.9"/>
    <line x1="93"   y1="1025" x2="337" y2="1025" stroke="#5080a8" stroke-width="3.7"/>
    <line x1="937"  y1="1025" x2="1080" y2="1025" stroke="#3868a8" stroke-width="3.9"/>
  </g>

  <!-- Warm now-hairline at ~75% width -->
  <line x1="810" y1="0" x2="810" y2="1080" stroke="#b07a4a" stroke-width="1.2" opacity="0.8"/>

  <!-- Frayed selvedge tendrils -->
  <line x1="810" y1="200"  x2="838" y2="196"  stroke="rgba(244,236,216,0.18)" stroke-width="0.9"/>
  <line x1="810" y1="340"  x2="832" y2="347"  stroke="rgba(244,236,216,0.14)" stroke-width="0.7"/>
  <line x1="810" y1="480"  x2="844" y2="477"  stroke="rgba(244,236,216,0.20)" stroke-width="1.0"/>
  <line x1="810" y1="600"  x2="836" y2="608"  stroke="rgba(244,236,216,0.16)" stroke-width="0.8"/>
  <line x1="810" y1="740"  x2="848" y2="742"  stroke="rgba(244,236,216,0.18)" stroke-width="0.9"/>
  <line x1="810" y1="880"  x2="834" y2="886"  stroke="rgba(244,236,216,0.14)" stroke-width="0.7"/>
  <!-- Warm unwoven thread -->
  <path d="M810,540 C844,537 872,548 924,558" stroke="rgba(176,122,74,0.65)" stroke-width="1.6" fill="none"/>

  <!-- Year labels at bottom -->
  <text x="20"  y="1068" font-family="'Courier New',monospace" font-size="11" fill="rgba(244,236,216,0.52)">2010</text>
  <text x="285" y="1068" font-family="'Courier New',monospace" font-size="11" fill="rgba(244,236,216,0.28)">2030</text>
  <text x="555" y="1068" font-family="'Courier New',monospace" font-size="11" fill="rgba(244,236,216,0.28)">2050</text>
  <text x="820" y="1068" font-family="'Courier New',monospace" font-size="11" fill="rgba(244,236,216,0.28)">2070</text>

  <!-- Sealed future ∞ pegs -->
  <text x="944"  y="55" font-family="Georgia,serif" font-size="18" fill="#b07a4a" text-anchor="middle" opacity="0.72">∞</text>
  <text x="1020" y="55" font-family="Georgia,serif" font-size="18" fill="#b07a4a" text-anchor="middle" opacity="0.72">∞</text>
  <text x="1072" y="55" font-family="Georgia,serif" font-size="18" fill="#b07a4a" text-anchor="middle" opacity="0.72">∞</text>
  <line x1="944"  y1="66"  x2="944"  y2="380" stroke="rgba(176,122,74,0.30)" stroke-width="1" stroke-dasharray="2,5"/>
  <line x1="1020" y1="66"  x2="1020" y2="380" stroke="rgba(176,122,74,0.30)" stroke-width="1" stroke-dasharray="2,5"/>
  <line x1="1072" y1="66"  x2="1072" y2="380" stroke="rgba(176,122,74,0.25)" stroke-width="1" stroke-dasharray="2,5"/>

  <!-- ∞ wordmark at bottom — subtle -->
  <text x="540" y="1050" font-family="Georgia,'Times New Roman',serif" font-size="22" font-weight="300" fill="rgba(176,122,74,0.55)" text-anchor="middle">∞ heirloom.blue</text>
</svg>
