<svg xmlns="http://www.w3.org/2000/svg" viewBox="0 0 512 512">
  <defs>
    <linearGradient id="gold" x1="0%" y1="0%" x2="100%" y2="100%">
      <stop offset="0%" stop-color="#f0d78c"/>
      <stop offset="50%" stop-color="#c9a959"/>
      <stop offset="100%" stop-color="#a08335"/>
    </linearGradient>
    <filter id="glow">
      <feGaussianBlur stdDeviation="6" result="blur"/>
      <feMerge>
        <feMergeNode in="blur"/>
        <feMergeNode in="SourceGraphic"/>
      </feMerge>
    </filter>
  </defs>
  
  <!-- Dark background -->
  <circle cx="256" cy="256" r="256" fill="#0a0c10"/>
  
  <!-- Subtle ring -->
  <circle cx="256" cy="256" r="220" fill="none" stroke="url(#gold)" stroke-width="2" opacity="0.3"/>
  
  <!-- Infinity symbol -->
  <g filter="url(#glow)">
    <path 
      d="M136 256 
         C136 206 176 166 236 166 
         C276 166 306 186 326 216 
         C346 186 376 166 416 166 
         C476 166 516 206 516 256 
         C516 306 476 346 416 346 
         C376 346 346 326 326 296 
         C306 326 276 346 236 346 
         C176 346 136 306 136 256 Z"
      fill="none"
      stroke="url(#gold)"
      stroke-width="36"
      stroke-linecap="round"
      stroke-linejoin="round"
      transform="translate(-70, 0)"
    />
  </g>
</svg>
